<svg width="679" height="270" viewBox="0 0 679 270" fill="none" xmlns="http://www.w3.org/2000/svg">
<path d="M326.254 114.617C326.867 115.959 327.275 117.448 327.48 119.082C327.684 120.687 327.786 122.57 327.786 124.729V153.972H320.869V146.617C317.105 152.396 311.268 155.285 303.359 155.285C299.944 155.285 297.026 154.658 294.604 153.403C292.181 152.119 290.357 150.411 289.132 148.281C287.906 146.15 287.293 143.787 287.293 141.189C287.293 134.214 291.16 129.588 298.894 127.312C301.17 126.699 303.782 126.159 306.73 125.692C309.677 125.225 313.209 124.715 317.323 124.16L320.125 123.766C320.008 119.943 319.045 117.141 317.236 115.361C315.427 113.552 312.508 112.647 308.481 112.647C305.504 112.647 302.95 113.333 300.82 114.705C298.719 116.047 297.259 118.119 296.442 120.921L289.044 118.688C290.182 114.456 292.4 111.188 295.698 108.882C299.025 106.548 303.315 105.38 308.568 105.38C312.917 105.38 316.608 106.168 319.644 107.744C322.708 109.291 324.911 111.582 326.254 114.617ZM304.541 148.762C307.255 148.762 309.648 148.281 311.72 147.318C313.792 146.326 315.47 145.012 316.754 143.378C318.038 141.714 318.87 139.876 319.25 137.862C319.541 136.87 319.731 135.761 319.819 134.535C319.935 133.309 320.008 131.938 320.038 130.42L317.893 130.683C313.778 131.237 310.611 131.69 308.393 132.04C306.204 132.39 304.205 132.828 302.396 133.353C300.149 134.054 298.354 135.017 297.011 136.242C295.698 137.468 295.041 139.102 295.041 141.145C295.041 142.517 295.377 143.787 296.048 144.954C296.719 146.092 297.77 147.011 299.2 147.712C300.63 148.412 302.41 148.762 304.541 148.762Z" fill="url(#paint0_linear)"/>
<path d="M348.405 109.583C349.718 108.532 351.265 107.73 353.045 107.175C354.825 106.621 356.62 106.343 358.429 106.343C359.568 106.343 360.691 106.46 361.8 106.693V114.004C360.574 113.712 359.392 113.566 358.254 113.566C355.423 113.566 353.001 114.311 350.987 115.799C348.857 117.317 347.369 119.316 346.522 121.796C345.676 124.248 345.253 127.064 345.253 130.245V153.972H337.417V106.693H344.377V114.179C345.486 112.253 346.829 110.721 348.405 109.583Z" fill="url(#paint1_linear)"/>
<path d="M403.122 114.617C403.735 115.959 404.144 117.448 404.348 119.082C404.552 120.687 404.654 122.57 404.654 124.729V153.972H397.738V146.617C393.973 152.396 388.136 155.285 380.227 155.285C376.813 155.285 373.894 154.658 371.472 153.403C369.05 152.119 367.226 150.411 366 148.281C364.774 146.15 364.161 143.787 364.161 141.189C364.161 134.214 368.028 129.588 375.762 127.312C378.038 126.699 380.65 126.159 383.598 125.692C386.546 125.225 390.077 124.715 394.192 124.16L396.994 123.766C396.877 119.943 395.914 117.141 394.104 115.361C392.295 113.552 389.376 112.647 385.349 112.647C382.372 112.647 379.819 113.333 377.688 114.705C375.587 116.047 374.128 118.119 373.311 120.921L365.912 118.688C367.051 114.456 369.269 111.188 372.566 108.882C375.893 106.548 380.183 105.38 385.437 105.38C389.785 105.38 393.477 106.168 396.512 107.744C399.576 109.291 401.78 111.582 403.122 114.617ZM381.409 148.762C384.123 148.762 386.516 148.281 388.588 147.318C390.661 146.326 392.339 145.012 393.623 143.378C394.907 141.714 395.739 139.876 396.118 137.862C396.41 136.87 396.6 135.761 396.687 134.535C396.804 133.309 396.877 131.938 396.906 130.42L394.761 130.683C390.646 131.237 387.479 131.69 385.261 132.04C383.073 132.39 381.074 132.828 379.264 133.353C377.017 134.054 375.222 135.017 373.88 136.242C372.566 137.468 371.91 139.102 371.91 141.145C371.91 142.517 372.245 143.787 372.917 144.954C373.588 146.092 374.638 147.011 376.068 147.712C377.498 148.412 379.279 148.762 381.409 148.762Z" fill="url(#paint2_linear)"/>
<path d="M454.559 106.693V154.278C454.559 157.109 454.37 159.531 453.99 161.545C453.085 166.477 450.867 170.169 447.336 172.621C443.805 175.072 439.165 176.298 433.415 176.298C429.534 176.298 425.915 175.408 422.559 173.627C419.232 171.876 416.62 169.308 414.723 165.923L421.858 162.158C422.967 164.376 424.558 166.025 426.63 167.105C428.731 168.214 431.008 168.768 433.459 168.768C442.389 168.768 446.811 163.909 446.723 154.191V149.638C445.001 151.447 442.973 152.848 440.638 153.84C438.304 154.804 435.706 155.285 432.846 155.285C428.527 155.285 424.762 154.205 421.552 152.046C418.371 149.857 415.919 146.88 414.198 143.115C412.505 139.321 411.659 135.046 411.659 130.289C411.659 125.561 412.505 121.315 414.198 117.55C415.919 113.756 418.371 110.779 421.552 108.62C424.762 106.46 428.512 105.38 432.802 105.38C435.954 105.38 438.771 105.949 441.251 107.087C443.732 108.226 445.862 109.86 447.643 111.99V106.693H454.559ZM433.809 148.15C438.391 148.15 441.835 146.53 444.141 143.29C446.475 140.051 447.643 135.717 447.643 130.289C447.643 124.861 446.49 120.541 444.184 117.331C441.879 114.121 438.493 112.516 434.028 112.516C430.935 112.516 428.323 113.289 426.192 114.836C424.091 116.383 422.515 118.498 421.464 121.183C420.443 123.839 419.932 126.874 419.932 130.289C419.932 133.733 420.443 136.797 421.464 139.482C422.515 142.167 424.076 144.283 426.148 145.829C428.25 147.376 430.803 148.15 433.809 148.15Z" fill="url(#paint3_linear)"/>
<path d="M485.168 155.285C480.528 155.285 476.486 154.234 473.042 152.133C469.628 150.003 467.001 147.055 465.163 143.29C463.324 139.496 462.405 135.163 462.405 130.289C462.405 125.386 463.339 121.052 465.206 117.287C467.074 113.523 469.73 110.604 473.174 108.532C476.617 106.431 480.616 105.38 485.168 105.38C489.809 105.38 493.851 106.431 497.294 108.532C500.738 110.633 503.379 113.566 505.218 117.331C507.057 121.096 507.976 125.415 507.976 130.289C507.976 135.221 507.042 139.584 505.174 143.378C503.336 147.143 500.694 150.076 497.251 152.177C493.807 154.249 489.78 155.285 485.168 155.285ZM485.168 147.887C489.925 147.887 493.53 146.311 495.981 143.159C498.462 139.978 499.702 135.688 499.702 130.289C499.702 124.831 498.462 120.556 495.981 117.462C493.501 114.34 489.896 112.778 485.168 112.778C480.382 112.778 476.763 114.354 474.312 117.506C471.89 120.658 470.679 124.919 470.679 130.289C470.679 135.746 471.919 140.051 474.399 143.203C476.909 146.326 480.499 147.887 485.168 147.887Z" fill="url(#paint4_linear)"/>
<path d="M538.583 105.468C543.311 105.468 547.076 106.635 549.877 108.97C552.679 111.305 554.634 114.165 555.743 117.55C556.852 120.906 557.407 124.335 557.407 127.837V153.972H549.527V130.289C549.527 125.211 548.535 121.037 546.55 117.769C544.595 114.5 541.312 112.866 536.701 112.866C532.673 112.866 529.492 114.238 527.157 116.981C524.852 119.695 523.699 123.722 523.699 129.063V153.972H515.819V106.693H522.824V112.778C524.604 110.414 526.822 108.605 529.478 107.35C532.162 106.095 535.198 105.468 538.583 105.468Z" fill="url(#paint5_linear)"/>
<path d="M593.697 155.285C587.51 155.285 582.14 153.928 577.587 151.214C573.063 148.471 569.59 144.618 567.168 139.657C564.746 134.696 563.535 128.961 563.535 122.453C563.535 115.945 564.746 110.21 567.168 105.249C569.59 100.288 573.063 96.4498 577.587 93.7357C582.14 90.9924 587.51 89.6207 593.697 89.6207C599.913 89.6207 605.283 90.9924 609.806 93.7357C614.359 96.4498 617.846 100.288 620.269 105.249C622.691 110.21 623.902 115.945 623.902 122.453C623.902 128.961 622.691 134.696 620.269 139.657C617.846 144.618 614.359 148.471 609.806 151.214C605.283 153.928 599.913 155.285 593.697 155.285ZM593.697 145.348C597.841 145.377 601.328 144.458 604.159 142.59C607.019 140.722 609.164 138.066 610.594 134.623C612.024 131.179 612.739 127.122 612.739 122.453C612.739 117.813 612.024 113.785 610.594 110.371C609.164 106.956 607.019 104.315 604.159 102.447C601.328 100.579 597.841 99.6163 593.697 99.5579C589.552 99.5288 586.065 100.448 583.234 102.316C580.403 104.184 578.273 106.839 576.843 110.283C575.442 113.727 574.727 117.783 574.698 122.453C574.669 127.093 575.369 131.121 576.799 134.535C578.229 137.95 580.359 140.591 583.19 142.459C586.05 144.326 589.552 145.29 593.697 145.348Z" fill="url(#paint6_linear)"/>
<path d="M654.197 155.285C649.616 155.285 645.471 154.483 641.765 152.877C638.059 151.272 635.009 148.967 632.616 145.961C630.252 142.955 628.749 139.409 628.107 135.323L639.051 133.66C639.664 136.111 640.729 138.227 642.247 140.007C643.764 141.758 645.603 143.101 647.762 144.035C649.951 144.939 652.315 145.392 654.854 145.392C657.16 145.392 659.305 145.041 661.289 144.341C663.274 143.611 664.864 142.561 666.061 141.189C667.287 139.817 667.899 138.198 667.899 136.33C667.899 134.579 667.33 133.12 666.192 131.952C665.054 130.756 663.288 129.793 660.895 129.063L644.61 124.248C642.159 123.547 639.926 122.643 637.913 121.534C635.899 120.425 634.163 118.776 632.703 116.587C631.273 114.369 630.558 111.553 630.558 108.138C630.558 104.198 631.565 100.842 633.579 98.0695C635.593 95.2679 638.336 93.1666 641.809 91.7658C645.311 90.3649 649.236 89.6791 653.585 89.7083C660.093 89.7666 665.506 91.401 669.826 94.6112C674.174 97.7923 677.049 102.301 678.449 108.138L667.111 110.108C666.645 107.919 665.725 106.037 664.354 104.461C663.011 102.856 661.348 101.645 659.363 100.827C657.408 99.9811 655.321 99.5579 653.103 99.5579C651.031 99.5579 649.119 99.9081 647.368 100.609C645.617 101.28 644.216 102.228 643.166 103.454C642.144 104.651 641.634 106.037 641.634 107.613C641.634 109.714 642.451 111.319 644.085 112.428C645.749 113.508 647.967 114.413 650.739 115.142L662.033 118.294C665.01 119.111 667.666 120.074 670.001 121.183C672.335 122.263 674.407 123.985 676.217 126.349C678.026 128.713 678.931 131.806 678.931 135.63C678.931 139.832 677.793 143.422 675.517 146.399C673.269 149.346 670.263 151.564 666.499 153.053C662.734 154.541 658.633 155.285 654.197 155.285Z" fill="url(#paint7_linear)"/>
<path fill-rule="evenodd" clip-rule="evenodd" d="M116.737 202.193L58.3683 168.493V101.095L0 67.3955V202.193L116.737 269.591V202.193Z" fill="url(#paint8_linear)"/>
<path fill-rule="evenodd" clip-rule="evenodd" d="M58.3683 101.095L0 67.3953L116.737 0L233.473 67.3953L175.105 101.095L116.737 67.3953L58.3683 101.095Z" fill="url(#paint9_linear)"/>
<path fill-rule="evenodd" clip-rule="evenodd" d="M175.105 101.095V168.493L116.737 202.193V269.591L233.473 202.193V67.3955L175.105 101.095Z" fill="url(#paint10_linear)"/>
<path fill-rule="evenodd" clip-rule="evenodd" d="M58.3684 168.494L116.737 202.193L175.105 168.494L116.737 134.794L58.3684 168.494Z" fill="url(#paint11_linear)"/>
<path fill-rule="evenodd" clip-rule="evenodd" d="M58.3684 101.095V168.493L116.737 134.794V67.3955L58.3684 101.095Z" fill="url(#paint12_linear)"/>
<path fill-rule="evenodd" clip-rule="evenodd" d="M116.737 67.3955L175.105 101.095V168.493L116.737 134.794V67.3955Z" fill="url(#paint13_linear)"/>
<defs>
<linearGradient id="paint0_linear" x1="-211.792" y1="186.846" x2="710.079" y2="142.883" gradientUnits="userSpaceOnUse">
<stop stop-color="#53E4E4"/>
<stop offset="1" stop-color="#44D7D6"/>
</linearGradient>
<linearGradient id="paint1_linear" x1="-211.792" y1="186.846" x2="710.079" y2="142.883" gradientUnits="userSpaceOnUse">
<stop stop-color="#53E4E4"/>
<stop offset="1" stop-color="#44D7D6"/>
</linearGradient>
<linearGradient id="paint2_linear" x1="-211.792" y1="186.846" x2="710.079" y2="142.883" gradientUnits="userSpaceOnUse">
<stop stop-color="#53E4E4"/>
<stop offset="1" stop-color="#44D7D6"/>
</linearGradient>
<linearGradient id="paint3_linear" x1="-211.792" y1="186.846" x2="710.079" y2="142.883" gradientUnits="userSpaceOnUse">
<stop stop-color="#53E4E4"/>
<stop offset="1" stop-color="#44D7D6"/>
</linearGradient>
<linearGradient id="paint4_linear" x1="-211.792" y1="186.846" x2="710.079" y2="142.883" gradientUnits="userSpaceOnUse">
<stop stop-color="#53E4E4"/>
<stop offset="1" stop-color="#44D7D6"/>
</linearGradient>
<linearGradient id="paint5_linear" x1="-211.792" y1="186.846" x2="710.079" y2="142.883" gradientUnits="userSpaceOnUse">
<stop stop-color="#53E4E4"/>
<stop offset="1" stop-color="#44D7D6"/>
</linearGradient>
<linearGradient id="paint6_linear" x1="-211.792" y1="186.846" x2="710.079" y2="142.883" gradientUnits="userSpaceOnUse">
<stop stop-color="#53E4E4"/>
<stop offset="1" stop-color="#44D7D6"/>
</linearGradient>
<linearGradient id="paint7_linear" x1="-211.792" y1="186.846" x2="710.079" y2="142.883" gradientUnits="userSpaceOnUse">
<stop stop-color="#53E4E4"/>
<stop offset="1" stop-color="#44D7D6"/>
</linearGradient>
<linearGradient id="paint8_linear" x1="58.3683" y1="67.3955" x2="58.3683" y2="269.591" gradientUnits="userSpaceOnUse">
<stop stop-color="#01CECF"/>
<stop offset="1" stop-color="#55E2E2"/>
</linearGradient>
<linearGradient id="paint9_linear" x1="116.737" y1="0" x2="116.737" y2="101.095" gradientUnits="userSpaceOnUse">
<stop stop-color="#01CECF"/>
<stop offset="1" stop-color="#55E2E2"/>
</linearGradient>
<linearGradient id="paint10_linear" x1="175.105" y1="67.3955" x2="175.105" y2="269.591" gradientUnits="userSpaceOnUse">
<stop stop-color="#02BCBD"/>
<stop offset="1" stop-color="#55E2E2"/>
</linearGradient>
<linearGradient id="paint11_linear" x1="116.737" y1="134.794" x2="116.737" y2="202.193" gradientUnits="userSpaceOnUse">
<stop stop-color="#12F6F8"/>
<stop offset="1" stop-color="#78FBFA"/>
</linearGradient>
<linearGradient id="paint12_linear" x1="87.5526" y1="67.3955" x2="87.5526" y2="168.493" gradientUnits="userSpaceOnUse">
<stop stop-color="#12F6F8"/>
<stop offset="1" stop-color="#55E2E2"/>
</linearGradient>
<linearGradient id="paint13_linear" x1="145.921" y1="67.3955" x2="145.921" y2="168.493" gradientUnits="userSpaceOnUse">
<stop stop-color="#0DCECF"/>
<stop offset="1" stop-color="#41D9D8"/>
</linearGradient>
</defs>
</svg>
